<?xml version="1.0" encoding="UTF-8" standalone="no"?>
<!DOCTYPE svg PUBLIC "-//W3C//DTD SVG 1.1//EN" "http://www.w3.org/Graphics/SVG/1.1/DTD/svg11.dtd">
<svg width="100%" height="100%" viewBox="0 0 1800 200" version="1.1" xmlns="http://www.w3.org/2000/svg" xmlns:xlink="http://www.w3.org/1999/xlink" xml:space="preserve" xmlns:serif="http://www.serif.com/" style="fill-rule:evenodd;clip-rule:evenodd;stroke-linejoin:round;stroke-miterlimit:2;">
    <g id="Amazon">
        <g id="path8" transform="matrix(0.659738,0,0,0.659738,-7.28552e-07,7.38641e-05)">
            <path d="M620.38,235.668C562.269,278.501 478.039,301.354 405.52,301.354C303.835,301.354 212.293,263.745 143.037,201.193C137.596,196.274 142.472,189.571 149.001,193.401C223.741,236.887 316.154,263.048 411.614,263.048C475.994,263.048 546.816,249.728 611.936,222.087C621.773,217.908 630,228.529 620.38,235.668" style="fill:rgb(255,153,0);"/>
        </g>
        <g id="path10" transform="matrix(0.659738,0,0,0.659738,-7.28552e-07,7.38641e-05)">
            <path d="M644.539,208.027C637.139,198.538 595.438,203.544 576.72,205.764C571.018,206.46 570.148,201.498 575.284,197.928C608.497,174.553 662.996,181.3 669.351,189.135C675.706,197.014 667.697,251.643 636.486,277.718C631.698,281.722 627.127,279.589 629.26,274.279C636.269,256.78 651.983,217.56 644.539,208.027" style="fill:rgb(255,153,0);"/>
        </g>
        <g id="path12" transform="matrix(0.659738,0,0,0.659738,-7.28552e-07,7.38641e-05)">
            <path d="M578.026,32.908L578.026,10.186C578.026,6.747 580.638,4.44 583.772,4.44L685.5,4.44C688.765,4.44 691.377,6.791 691.377,10.186L691.377,29.644C691.333,32.908 688.591,37.174 683.716,43.921L631.002,119.184C650.59,118.705 671.266,121.621 689.026,131.633C693.031,133.897 694.119,137.205 694.424,140.469L694.424,164.715C694.424,168.024 690.767,171.898 686.937,169.895C655.639,153.485 614.069,151.7 579.463,170.069C575.937,171.985 572.237,168.154 572.237,164.846L572.237,141.819C572.237,138.119 572.28,131.807 575.98,126.192L637.052,38.611L583.903,38.611C580.638,38.611 578.026,36.304 578.026,32.908"/>
        </g>
        <g id="path14" transform="matrix(0.659738,0,0,0.659738,-7.28552e-07,7.38641e-05)">
            <path d="M206.939,174.684L175.989,174.684C173.029,174.466 170.679,172.246 170.461,169.416L170.461,10.578C170.461,7.4 173.116,4.876 176.424,4.876L205.284,4.876C208.288,5.006 210.682,7.313 210.9,10.186L210.9,30.95L211.466,30.95C218.996,10.883 233.143,1.524 252.209,1.524C271.58,1.524 283.681,10.883 292.387,30.95C299.874,10.883 316.894,1.524 335.133,1.524C348.104,1.524 362.295,6.878 370.957,18.892C380.751,32.255 378.749,51.67 378.749,68.69L378.705,168.938C378.705,172.115 376.05,174.684 372.742,174.684L341.836,174.684C338.746,174.466 336.264,171.985 336.264,168.938L336.264,84.752C336.264,78.048 336.874,61.333 335.394,54.978C333.087,44.313 326.166,41.31 317.198,41.31C309.711,41.31 301.876,46.315 298.698,54.325C295.521,62.334 295.826,75.741 295.826,84.752L295.826,168.938C295.826,172.115 293.17,174.684 289.862,174.684L258.956,174.684C255.822,174.466 253.384,171.985 253.384,168.938L253.341,84.752C253.341,67.035 256.257,40.961 234.275,40.961C212.032,40.961 212.902,66.382 212.902,84.752L212.902,168.938C212.902,172.115 210.247,174.684 206.939,174.684"/>
        </g>
        <g id="path16" transform="matrix(0.659738,0,0,0.659738,-7.28552e-07,7.38641e-05)">
            <path d="M778.958,1.524C824.881,1.524 849.737,40.961 849.737,91.107C849.737,139.555 822.27,177.992 778.958,177.992C733.861,177.992 709.311,138.554 709.311,89.41C709.311,39.96 734.166,1.524 778.958,1.524M779.219,33.953C756.41,33.953 754.973,65.033 754.973,84.404C754.973,103.818 754.669,145.258 778.958,145.258C802.943,145.258 804.074,111.827 804.074,91.455C804.074,78.048 803.508,62.03 799.46,49.319C795.978,38.263 789.057,33.953 779.219,33.953"/>
        </g>
        <g id="path18" transform="matrix(0.659738,0,0,0.659738,-7.28552e-07,7.38641e-05)">
            <path d="M909.285,174.684L878.466,174.684C875.375,174.466 872.894,171.985 872.894,168.938L872.851,10.056C873.112,7.139 875.68,4.876 878.814,4.876L907.5,4.876C910.199,5.006 912.419,6.834 913.028,9.316L913.028,33.605L913.594,33.605C922.257,11.884 934.401,1.524 955.774,1.524C969.66,1.524 983.198,6.53 991.904,20.241C1000,32.952 1000,54.325 1000,69.691L1000,169.678C999.652,172.464 997.084,174.684 994.037,174.684L963,174.684C960.171,174.466 957.82,172.377 957.515,169.678L957.515,83.402C957.515,66.034 959.518,40.613 938.145,40.613C930.614,40.613 923.693,45.663 920.254,53.324C915.901,63.031 915.335,72.694 915.335,83.402L915.335,168.938C915.292,172.115 912.593,174.684 909.285,174.684"/>
        </g>
        <g id="path28" transform="matrix(0.659738,0,0,0.659738,-7.28552e-07,7.38641e-05)">
            <path d="M496.931,98.812C496.931,110.87 497.236,120.925 491.142,131.633C486.223,140.339 478.388,145.693 469.725,145.693C457.842,145.693 450.877,136.639 450.877,123.275C450.877,96.897 474.514,92.108 496.931,92.108L496.931,98.812M528.142,174.248C526.096,176.076 523.136,176.207 520.829,174.988C510.556,166.457 508.684,162.495 503.069,154.355C486.092,171.68 474.035,176.86 452.052,176.86C425.978,176.86 405.737,160.798 405.737,128.63C405.737,103.513 419.318,86.406 438.732,78.048C455.535,70.648 478.997,69.343 496.931,67.297L496.931,63.292C496.931,55.935 497.497,47.23 493.144,40.874C489.401,35.172 482.175,32.821 475.776,32.821C463.979,32.821 453.489,38.872 450.921,51.408C450.398,54.194 448.352,56.937 445.523,57.067L415.531,53.846C413.007,53.28 410.177,51.234 410.917,47.36C417.795,10.97 450.703,0 480.129,0C495.19,0 514.865,4.005 526.749,15.41C541.81,29.47 540.373,48.231 540.373,68.646L540.373,116.877C540.373,131.372 546.381,137.727 552.039,145.562C553.998,148.348 554.433,151.7 551.909,153.789C545.597,159.057 534.366,168.851 528.185,174.335L528.142,174.248"/>
        </g>
        <g id="path30" transform="matrix(0.659738,0,0,0.659738,-7.28552e-07,7.38641e-05)">
            <path d="M91.194,98.812C91.194,110.87 91.499,120.925 85.405,131.633C80.486,140.339 72.694,145.693 63.988,145.693C52.105,145.693 45.183,136.639 45.183,123.275C45.183,96.897 68.82,92.108 91.194,92.108L91.194,98.812M122.405,174.248C120.359,176.076 117.399,176.207 115.092,174.988C104.819,166.457 102.99,162.495 97.332,154.355C80.355,171.68 68.341,176.86 46.315,176.86C20.285,176.86 -0,160.798 -0,128.63C-0,103.513 13.625,86.406 32.995,78.048C49.798,70.648 73.26,69.343 91.194,67.297L91.194,63.292C91.194,55.935 91.76,47.23 87.45,40.874C83.663,35.172 76.438,32.821 70.082,32.821C58.286,32.821 47.752,38.872 45.183,51.408C44.661,54.194 42.615,56.937 39.829,57.067L9.794,53.846C7.269,53.28 4.484,51.234 5.18,47.36C12.101,10.97 44.966,0 74.392,0C89.453,0 109.128,4.005 121.012,15.41C136.073,29.47 134.636,48.231 134.636,68.646L134.636,116.877C134.636,131.372 140.643,137.727 146.302,145.562C148.305,148.348 148.74,151.7 146.215,153.789C139.903,159.057 128.673,168.851 122.492,174.335L122.405,174.248"/>
        </g>
    </g>
</svg>
