<?xml version="1.0" encoding="UTF-8" standalone="no"?>
<!DOCTYPE svg PUBLIC "-//W3C//DTD SVG 1.1//EN" "http://www.w3.org/Graphics/SVG/1.1/DTD/svg11.dtd">
<svg width="100%" height="100%" viewBox="0 0 1800 200" version="1.1" xmlns="http://www.w3.org/2000/svg" xmlns:xlink="http://www.w3.org/1999/xlink" xml:space="preserve" xmlns:serif="http://www.serif.com/" style="fill-rule:evenodd;clip-rule:evenodd;stroke-linejoin:round;stroke-miterlimit:2;">
    <g transform="matrix(1.55321,0,0,1.55321,-1.24558,-1.77027e-06)">
        <g id="Grammarly">
            <g id="g14" transform="matrix(0.133333,0,0,-0.133333,0,128)">
                <g id="g16">
                    <clipPath id="_clip1">
                        <path d="M1258.08,252.523C1243.07,258.281 1233.25,270.43 1233.25,286.621C1233.25,306.262 1249.41,322.434 1269.05,322.434C1274.82,322.434 1279.43,321.285 1283.48,319.555C1308.89,307.992 1336.02,301.063 1368.94,301.063C1428.98,301.063 1457.28,329.949 1457.28,385.441L1457.28,400.465C1431.28,369.246 1403.01,350.191 1356.24,350.191C1284.06,350.191 1218.8,402.781 1218.8,494.672L1218.8,495.82C1218.8,588.293 1285.21,640.301 1356.24,640.301C1404.15,640.301 1432.45,620.078 1456.11,594.074L1456.11,594.656C1456.11,618.344 1475.75,637.984 1500,637.984C1524.25,637.984 1543.86,618.344 1543.86,594.074L1543.86,394.684C1543.86,339.191 1530.61,298.746 1504.61,272.746C1475.75,243.84 1431.28,231.129 1371.25,231.129C1330.24,231.129 1294.45,238.059 1258.08,252.523ZM1457.28,494.672L1457.28,495.82C1457.28,538.016 1424.36,567.484 1381.64,567.484C1338.92,567.484 1306.58,538.016 1306.58,495.82L1306.58,494.672C1306.58,451.91 1338.92,423.004 1381.64,423.004C1424.36,423.004 1457.28,452.473 1457.28,494.672Z"/>
                    </clipPath>
                    <g clip-path="url(#_clip1)">
                        <g id="g22">
                            <rect id="path28" x="1118.8" y="131.129" width="525.059" height="609.172" style="fill:rgb(75,75,75);fill-rule:nonzero;"/>
                        </g>
                    </g>
                </g>
            </g>
            <g id="g30" transform="matrix(0.133333,0,0,-0.133333,0,128)">
                <g id="g32">
                    <clipPath id="_clip2">
                        <path d="M1593.55,594.074C1593.55,618.344 1613.17,637.984 1637.44,637.984C1661.68,637.984 1681.3,618.344 1681.3,594.074L1681.3,580.215C1694.02,610.246 1714.79,637.984 1740.79,637.984C1767.93,637.984 1783.5,620.078 1783.5,595.242C1783.5,572.117 1768.49,558.238 1750.61,554.191C1706.13,543.777 1681.3,509.699 1681.3,447.277L1681.3,365.219C1681.3,340.945 1661.68,321.285 1637.44,321.285C1613.17,321.285 1593.55,340.945 1593.55,365.219L1593.55,594.074"/>
                    </clipPath>
                    <g clip-path="url(#_clip2)">
                        <g id="g38">
                            <rect id="path44" x="1493.55" y="221.285" width="389.957" height="516.699" style="fill:rgb(75,75,75);fill-rule:nonzero;"/>
                        </g>
                    </g>
                </g>
            </g>
            <g id="g46" transform="matrix(0.133333,0,0,-0.133333,0,128)">
                <g id="g48">
                    <clipPath id="_clip3">
                        <path d="M1773.12,413.762L1773.12,414.906C1773.12,482.523 1824.5,513.746 1897.84,513.746C1929.01,513.746 1951.53,508.551 1973.48,501.035L1973.48,506.234C1973.48,542.629 1950.95,562.875 1907.08,562.875C1882.83,562.875 1863.19,559.387 1846.45,554.191C1841.26,552.461 1837.8,551.875 1833.75,551.875C1813.55,551.875 1797.37,567.484 1797.37,587.73C1797.37,603.316 1807.17,616.613 1821.05,621.828C1848.76,632.223 1878.79,637.984 1919.78,637.984C1967.69,637.984 2002.34,625.273 2024.27,603.316C2047.38,580.215 2057.78,546.094 2057.78,504.48L2057.78,363.484C2057.78,339.777 2038.72,321.285 2015.04,321.285C1989.64,321.285 1972.9,339.191 1972.9,357.703L1972.9,358.289C1951.53,334.582 1922.09,318.992 1879.35,318.992C1821.05,318.992 1773.12,352.488 1773.12,413.762ZM1974.63,433.984L1974.63,449.594C1959.62,456.523 1940,461.156 1918.61,461.156C1881.08,461.156 1858,446.129 1858,418.371L1858,417.223C1858,393.516 1877.64,379.66 1905.91,379.66C1946.92,379.66 1974.63,402.199 1974.63,433.984Z"/>
                    </clipPath>
                    <g clip-path="url(#_clip3)">
                        <g id="g54">
                            <rect id="path60" x="1673.12" y="218.992" width="484.656" height="518.992" style="fill:rgb(75,75,75);fill-rule:nonzero;"/>
                        </g>
                    </g>
                </g>
            </g>
            <g id="g62" transform="matrix(0.133333,0,0,-0.133333,0,128)">
                <g id="g64">
                    <clipPath id="_clip4">
                        <path d="M2104.56,594.074C2104.56,618.344 2124.18,637.984 2148.45,637.984C2172.7,637.984 2192.34,618.344 2192.34,594.074L2192.34,590.586C2212.52,616.613 2239.1,640.301 2283.55,640.301C2323.96,640.301 2354.57,622.395 2370.72,591.172C2397.87,622.957 2430.21,640.301 2472.34,640.301C2537.6,640.301 2576.86,601 2576.86,526.434L2576.86,365.219C2576.86,340.945 2557.22,321.285 2532.97,321.285C2508.73,321.285 2489.09,340.945 2489.09,365.219L2489.09,497.551C2489.09,539.164 2470.61,560.555 2437.71,560.555C2404.79,560.555 2384.59,539.164 2384.59,497.551L2384.59,365.219C2384.59,340.945 2364.97,321.285 2340.7,321.285C2316.45,321.285 2296.81,340.945 2296.81,365.219L2296.81,497.551C2296.81,539.164 2278.36,560.555 2245.44,560.555C2212.52,560.555 2192.34,539.164 2192.34,497.551L2192.34,365.219C2192.34,340.945 2172.7,321.285 2148.45,321.285C2124.18,321.285 2104.56,340.945 2104.56,365.219L2104.56,594.074"/>
                    </clipPath>
                    <g clip-path="url(#_clip4)">
                        <g id="g70">
                            <rect id="path76" x="2004.56" y="221.285" width="672.297" height="519.016" style="fill:rgb(75,75,75);fill-rule:nonzero;"/>
                        </g>
                    </g>
                </g>
            </g>
            <g id="g78" transform="matrix(0.133333,0,0,-0.133333,0,128)">
                <g id="g80">
                    <clipPath id="_clip5">
                        <path d="M2624.23,594.074C2624.23,618.344 2643.85,637.984 2668.12,637.984C2692.36,637.984 2712,618.344 2712,594.074L2712,590.586C2732.19,616.613 2758.77,640.301 2803.22,640.301C2843.63,640.301 2874.23,622.395 2890.39,591.172C2917.54,622.957 2949.88,640.301 2992.01,640.301C3057.27,640.301 3096.53,601 3096.53,526.434L3096.53,365.219C3096.53,340.945 3076.91,321.285 3052.64,321.285C3028.39,321.285 3008.75,340.945 3008.75,365.219L3008.75,497.551C3008.75,539.164 2990.28,560.555 2957.38,560.555C2924.46,560.555 2904.25,539.164 2904.25,497.551L2904.25,365.219C2904.25,340.945 2884.64,321.285 2860.37,321.285C2836.12,321.285 2816.5,340.945 2816.5,365.219L2816.5,497.551C2816.5,539.164 2798.03,560.555 2765.11,560.555C2732.19,560.555 2712,539.164 2712,497.551L2712,365.219C2712,340.945 2692.36,321.285 2668.12,321.285C2643.85,321.285 2624.23,340.945 2624.23,365.219L2624.23,594.074"/>
                    </clipPath>
                    <g clip-path="url(#_clip5)">
                        <g id="g86">
                            <rect id="path92" x="2524.23" y="221.285" width="672.297" height="519.016" style="fill:rgb(75,75,75);fill-rule:nonzero;"/>
                        </g>
                    </g>
                </g>
            </g>
            <g id="g94" transform="matrix(0.133333,0,0,-0.133333,0,128)">
                <g id="g96">
                    <clipPath id="_clip6">
                        <path d="M3125.43,413.762L3125.43,414.906C3125.43,482.523 3176.82,513.746 3250.13,513.746C3281.31,513.746 3303.83,508.551 3325.77,501.035L3325.77,506.234C3325.77,542.629 3303.27,562.875 3259.36,562.875C3235.11,562.875 3215.49,559.387 3198.75,554.191C3193.56,552.461 3190.1,551.875 3186.05,551.875C3165.83,551.875 3149.67,567.484 3149.67,587.73C3149.67,603.316 3159.49,616.613 3173.34,621.828C3201.07,632.223 3231.09,637.984 3272.08,637.984C3320.01,637.984 3354.64,625.273 3376.57,603.316C3399.68,580.215 3410.06,546.094 3410.06,504.48L3410.06,363.484C3410.06,339.777 3391.02,321.285 3367.36,321.285C3341.94,321.285 3325.2,339.191 3325.2,357.703L3325.2,358.289C3303.83,334.582 3274.37,318.992 3231.67,318.992C3173.34,318.992 3125.43,352.488 3125.43,413.762ZM3326.93,433.984L3326.93,449.594C3311.92,456.523 3292.28,461.156 3270.93,461.156C3233.38,461.156 3210.3,446.129 3210.3,418.371L3210.3,417.223C3210.3,393.516 3229.92,379.66 3258.21,379.66C3299.2,379.66 3326.93,402.199 3326.93,433.984Z"/>
                    </clipPath>
                    <g clip-path="url(#_clip6)">
                        <g id="g102">
                            <rect id="path108" x="3025.43" y="218.992" width="484.633" height="518.992" style="fill:rgb(75,75,75);fill-rule:nonzero;"/>
                        </g>
                    </g>
                </g>
            </g>
            <g id="g110" transform="matrix(0.133333,0,0,-0.133333,0,128)">
                <g id="g112">
                    <clipPath id="_clip7">
                        <path d="M3456.84,594.074C3456.84,618.344 3476.48,637.984 3500.73,637.984C3525,637.984 3544.62,618.344 3544.62,594.074L3544.62,580.215C3557.32,610.246 3578.1,637.984 3604.1,637.984C3631.23,637.984 3646.8,620.078 3646.8,595.242C3646.8,572.117 3631.79,558.238 3613.9,554.191C3569.45,543.777 3544.62,509.699 3544.62,447.277L3544.62,365.219C3544.62,340.945 3525,321.285 3500.73,321.285C3476.48,321.285 3456.84,340.945 3456.84,365.219L3456.84,594.074"/>
                    </clipPath>
                    <g clip-path="url(#_clip7)">
                        <g id="g118">
                            <rect id="path124" x="3356.84" y="221.285" width="389.957" height="516.699" style="fill:rgb(75,75,75);fill-rule:nonzero;"/>
                        </g>
                    </g>
                </g>
            </g>
            <g id="g126" transform="matrix(0.133333,0,0,-0.133333,0,128)">
                <g id="g128">
                    <clipPath id="_clip8">
                        <path d="M3673.38,706.207C3673.38,730.477 3693,750.113 3717.25,750.113C3741.52,750.113 3761.16,730.477 3761.16,706.207L3761.16,365.219C3761.16,340.945 3741.52,321.285 3717.25,321.285C3693,321.285 3673.38,340.945 3673.38,365.219L3673.38,706.207"/>
                    </clipPath>
                    <g clip-path="url(#_clip8)">
                        <g id="g134">
                            <rect id="path140" x="3573.38" y="221.285" width="287.777" height="628.828" style="fill:rgb(75,75,75);fill-rule:nonzero;"/>
                        </g>
                    </g>
                </g>
            </g>
            <g id="g142" transform="matrix(0.133333,0,0,-0.133333,0,128)">
                <g id="g144">
                    <clipPath id="_clip9">
                        <path d="M3831.02,238.645C3818.3,243.254 3803.29,253.668 3803.29,275.039C3803.29,296.43 3820.04,310.895 3837.95,310.895C3844.87,310.895 3848.91,309.727 3852.38,308.578C3859.88,306.262 3864.51,305.094 3870.87,305.094C3886.44,305.094 3893.95,307.992 3902.04,323.602L3904.91,330.531L3799.27,575.582C3796.96,581.363 3794.64,590.023 3794.64,595.805C3794.64,620.66 3813.7,637.984 3837.95,637.984C3859.88,637.984 3872.58,625.859 3880.08,605.07L3947.07,424.738L4011.72,604.488C4018.67,622.957 4031.34,637.984 4053.88,637.984C4076.4,637.984 4095.43,620.66 4095.43,597.539C4095.43,590.586 4093.14,580.777 4091.41,576.73L3983.43,317.238C3957.45,254.254 3931.48,230.547 3878.94,230.547C3859.3,230.547 3845.45,233.426 3831.02,238.645"/>
                    </clipPath>
                    <g clip-path="url(#_clip9)">
                        <g id="g150">
                            <clipPath id="_clip10">
                                <rect x="0" y="0" width="4100" height="960"/>
                            </clipPath>
                            <g clip-path="url(#_clip10)">
                                <rect id="path156" x="3694.64" y="130.547" width="500.793" height="607.438" style="fill:rgb(75,75,75);fill-rule:nonzero;"/>
                            </g>
                        </g>
                    </g>
                </g>
            </g>
            <g id="g158" transform="matrix(0.133333,0,0,-0.133333,0,128)">
                <g id="g160">
                    <clipPath id="_clip11">
                        <path d="M975.953,480C975.953,214.914 761.27,0 496.422,0C231.594,0 16.887,214.914 16.887,480C16.887,745.105 231.594,960 496.422,960C761.27,960 975.953,745.105 975.953,480"/>
                    </clipPath>
                    <g clip-path="url(#_clip11)">
                        <g id="g166">
                            <clipPath id="_clip12">
                                <rect x="0" y="0" width="4100" height="960"/>
                            </clipPath>
                            <g clip-path="url(#_clip12)">
                                <rect id="path172" x="0" y="0" width="1075.95" height="1060" style="fill:rgb(23,195,153);fill-rule:nonzero;"/>
                            </g>
                        </g>
                    </g>
                </g>
            </g>
            <g id="g174" transform="matrix(0.133333,0,0,-0.133333,0,128)">
                <g id="g176">
                    <clipPath id="_clip13">
                        <path d="M559.094,376.363C561.93,360.648 576.691,349.879 592.641,349.879L642.887,349.879L672.012,353.969C625.414,285.539 544.5,254.047 456.035,267.945C384.023,279.254 322.164,328.027 296.059,396.145C236.805,550.77 349.621,698.398 496.629,698.398C573.25,698.398 640.457,653.535 678.953,599.289C690.055,583.648 709.477,579.129 724.238,589.379C738.25,599.102 742.336,617.57 733.914,632.098C680.621,715.367 584.863,768.648 477.176,761.426C336.965,752.016 223.504,637.168 215.434,496.738C206.074,333.328 335.566,199.91 496.629,199.91C581.234,199.91 656.98,236.785 708.582,296.453L702.473,262.227L702.473,231.297C702.473,215.352 713.211,200.555 728.91,197.719C749.531,194.004 767.461,209.762 767.461,229.711L767.461,414.949L591.035,414.949C571.102,414.949 555.359,396.98 559.094,376.363Z"/>
                    </clipPath>
                    <g clip-path="url(#_clip13)">
                        <g id="g182">
                            <rect id="path188" x="114.957" y="97.172" width="752.504" height="764.906" style="fill:white;fill-rule:nonzero;"/>
                        </g>
                    </g>
                </g>
            </g>
        </g>
    </g>
</svg>
