<?xml version="1.0" encoding="UTF-8" standalone="no"?>
<!DOCTYPE svg PUBLIC "-//W3C//DTD SVG 1.1//EN" "http://www.w3.org/Graphics/SVG/1.1/DTD/svg11.dtd">
<svg width="100%" height="100%" viewBox="0 0 1800 200" version="1.1" xmlns="http://www.w3.org/2000/svg" xmlns:xlink="http://www.w3.org/1999/xlink" xml:space="preserve" xmlns:serif="http://www.serif.com/" style="fill-rule:evenodd;clip-rule:evenodd;stroke-linejoin:round;stroke-miterlimit:2;">
    <g transform="matrix(1.68344,0,0,1.68344,0,-0.0202067)">
        <g id="Inmobi">
            <g id="Path_240_00000040543164122259929240000005010560707039377031_" transform="matrix(1.58069,0,0,1.58069,1119.13,795.071)">
                <path d="M-630.3,-502.7C-620.2,-502.7 -612.1,-500 -606.4,-494.6C-600.6,-489.2 -597.6,-481.3 -597.6,-471.2L-597.6,-430.5C-597.6,-429.6 -598.4,-428.8 -599.3,-428.8L-612.7,-428.8C-613.6,-428.8 -614.4,-429.6 -614.4,-430.5L-614.4,-472.7C-614.4,-477.4 -615.8,-481 -618.6,-483.5C-621.5,-486.1 -625.4,-487.4 -630.3,-487.4L-644.7,-487.4C-649.6,-487.4 -653.5,-486.1 -656.4,-483.5C-659.2,-480.9 -660.6,-477.4 -660.6,-472.7L-660.6,-430.5C-660.6,-429.6 -661.4,-428.8 -662.3,-428.8L-675.7,-428.8C-676.6,-428.8 -677.4,-429.6 -677.4,-430.5L-677.4,-471.2C-677.4,-481.3 -674.5,-489.2 -668.6,-494.6C-662.8,-500 -654.8,-502.7 -644.7,-502.7L-630.3,-502.7M-474.2,-502.7L-488.6,-502.7C-498.7,-502.7 -506.8,-500 -512.5,-494.6C-512.6,-494.5 -512.8,-494.3 -512.9,-494.2C-513,-494.3 -513.2,-494.5 -513.3,-494.6C-519.1,-500 -527.1,-502.7 -537.2,-502.7L-551.6,-502.7C-561.7,-502.7 -569.8,-500 -575.5,-494.6C-581.3,-489.2 -584.3,-481.3 -584.3,-471.2L-584.3,-430.5C-584.3,-429.6 -583.5,-428.8 -582.6,-428.8L-569.2,-428.8C-568.3,-428.8 -567.5,-429.6 -567.5,-430.5L-567.5,-472.7C-567.5,-477.4 -566.1,-481 -563.3,-483.5C-560.4,-486.1 -556.5,-487.4 -551.6,-487.4L-537.2,-487.4C-532.3,-487.4 -528.4,-486.1 -525.5,-483.5C-522.7,-481 -521.3,-477.3 -521.3,-472.7L-521.3,-430.5C-521.3,-429.6 -520.5,-428.8 -519.6,-428.8L-506.2,-428.8C-505.3,-428.8 -504.5,-429.6 -504.5,-430.5L-504.5,-472.7C-504.5,-477.4 -503.1,-481 -500.3,-483.5C-497.4,-486.1 -493.5,-487.4 -488.6,-487.4L-474.2,-487.4C-469.3,-487.4 -465.4,-486.1 -462.5,-483.5C-459.7,-481 -458.3,-477.3 -458.3,-472.7L-458.3,-430.5C-458.3,-429.6 -457.5,-428.8 -456.6,-428.8L-443.2,-428.8C-442.3,-428.8 -441.5,-429.6 -441.5,-430.5L-441.5,-471.2C-441.5,-481.3 -444.4,-489.2 -450.3,-494.6C-456,-500 -464.1,-502.7 -474.2,-502.7M-240.3,-468.5C-235.6,-465.4 -233.2,-459.7 -233.2,-451.5C-233.2,-443.5 -235.2,-437.6 -239.1,-434C-243,-430.5 -249,-428.7 -257,-428.7L-313,-428.7C-313.9,-428.7 -314.7,-429.5 -314.7,-430.4L-314.7,-501C-314.7,-501.9 -313.9,-502.7 -313,-502.7L-261.5,-502.7C-254.1,-502.7 -248.4,-501.5 -244.5,-499.1C-239.4,-495.8 -236.8,-490.4 -236.8,-483C-236.7,-479.9 -237,-476.8 -237.7,-473.8C-238.1,-471.9 -239,-470.1 -240.3,-468.5M-261.2,-475.1C-254.3,-475.1 -253.3,-477.9 -253.3,-481C-253.3,-484.3 -254.3,-487.3 -261.3,-487.3L-297,-487.3C-297.5,-487.3 -297.8,-486.9 -297.8,-486.5L-297.8,-475.9C-297.8,-475.4 -297.4,-475.1 -297,-475.1L-261.2,-475.1M-297.9,-445.1C-297.9,-444.6 -297.5,-444.3 -297.1,-444.3L-258.5,-444.3C-252.3,-444.3 -249.8,-446.6 -249.8,-452.4C-249.8,-456 -250.9,-459.7 -259,-459.7L-297,-459.7C-297.5,-459.7 -297.8,-459.3 -297.8,-458.9L-297.9,-445.1ZM-204.8,-502.6L-218.5,-502.6C-219.4,-502.6 -220.2,-501.8 -220.2,-500.9L-220.2,-430.4C-220.2,-429.5 -219.4,-428.7 -218.5,-428.7L-204.9,-428.7C-204,-428.7 -203.2,-429.5 -203.2,-430.4L-203.2,-501C-203.1,-501.9 -203.9,-502.6 -204.8,-502.6ZM-692.6,-502.7L-706.3,-502.7C-707.2,-502.7 -708,-501.9 -708,-501L-708,-430.3C-708,-429.4 -707.2,-428.6 -706.3,-428.6L-692.6,-428.6C-691.7,-428.6 -690.9,-429.4 -690.9,-430.3L-690.9,-501C-690.9,-502 -691.7,-502.7 -692.6,-502.7Z" style="fill:rgb(20,118,252);fill-rule:nonzero;"/>
            </g>
            <g transform="matrix(1.58069,0,0,1.58069,6.59472e-14,-0.0171687)">
                <path id="Path_241_00000138569960490702086780000016303982753577425315_" d="M309.1,13.6L351.3,13.6C356.2,13.7 360,14.8 362.6,16.8L362.8,16.8L362.8,16.7C359.7,10.9 355,6 349.3,2.7C346.3,1 342.8,0.1 339.4,0.1L308.1,0.1C298.5,0.3 291,3.3 285.8,8.8C280.7,14.2 278,21.7 277.7,31C277.7,31.1 277.8,31.1 277.8,31.1C277.8,31.1 277.9,31.1 277.9,31C284.6,20.2 296.4,13.6 309.1,13.6Z" style="fill:url(#_Linear1);fill-rule:nonzero;"/>
                <path id="Path_242_00000014630845450602277260000002636582082785919384_" d="M374,8.9C365.4,-0.5 351.2,-0.1 348.6,0.1C348.5,0.1 348.5,0.2 348.5,0.2C348.5,0.2 348.5,0.3 348.6,0.3C359.3,5.6 366.8,16 368.4,27.8C369.1,32.7 368.7,42.5 368.7,42.5C368.5,55.8 361.2,67.9 349.5,74.1C349.4,74.1 349.4,74.2 349.4,74.3L349.5,74.4C352,74.5 365.6,74.8 374.1,65.6C379.4,59.8 382.2,51.8 382.2,41.7L382.2,32.9C382.1,22.7 379.3,14.7 374,8.9Z" style="fill:url(#_Linear2);fill-rule:nonzero;"/>
                <path id="Path_243_00000016767590359823891360000011236747957546222227_" d="M349.9,71.8C355.7,68.5 360.4,63.4 363.3,57.4C363.3,57.3 363.3,57.3 363.2,57.2L363.1,57.2C360.4,59.5 356.6,60.6 351.4,60.7L308.5,60.7C302.6,60.6 298.5,59.1 295.8,56.2C292.8,53 291.3,48.1 291.3,41.5L291.3,32.7C291.3,23.6 294.3,19.5 295.5,18.3L295.5,18.1L295.4,18.1C289.6,20.6 284.6,24.7 281,29.8C278.8,33 277.6,36.9 277.7,40.8C277.7,46.9 278.9,57.8 286,65.4C291.7,71.5 300.3,74.2 308.3,74.1L340.5,74.1C343.7,74.3 347,73.5 349.9,71.8Z" style="fill:url(#_Linear3);fill-rule:nonzero;"/>
            </g>
        </g>
    </g>
    <defs>
        <linearGradient id="_Linear1" x1="0" y1="0" x2="1" y2="0" gradientUnits="userSpaceOnUse" gradientTransform="matrix(83.3257,0,0,83.3257,281.348,15.6849)"><stop offset="0" style="stop-color:rgb(165,210,112);stop-opacity:1"/><stop offset="0.5" style="stop-color:rgb(93,164,182);stop-opacity:1"/><stop offset="0.77" style="stop-color:rgb(47,135,226);stop-opacity:1"/><stop offset="1" style="stop-color:rgb(20,118,252);stop-opacity:1"/></linearGradient>
        <linearGradient id="_Linear2" x1="0" y1="0" x2="1" y2="0" gradientUnits="userSpaceOnUse" gradientTransform="matrix(6.00352,70.3518,-70.3518,6.00352,361.326,1.86075)"><stop offset="0" style="stop-color:rgb(255,213,34);stop-opacity:1"/><stop offset="0.02" style="stop-color:rgb(255,213,34);stop-opacity:1"/><stop offset="0.15" style="stop-color:rgb(224,196,55);stop-opacity:1"/><stop offset="0.56" style="stop-color:rgb(123,140,126);stop-opacity:1"/><stop offset="0.9" style="stop-color:rgb(35,121,233);stop-opacity:1"/><stop offset="1" style="stop-color:rgb(20,118,252);stop-opacity:1"/></linearGradient>
        <linearGradient id="_Linear3" x1="0" y1="0" x2="1" y2="0" gradientUnits="userSpaceOnUse" gradientTransform="matrix(71.2977,29.5778,-29.5778,71.2977,278.615,38.0452)"><stop offset="0" style="stop-color:rgb(252,75,56);stop-opacity:1"/><stop offset="0.06" style="stop-color:rgb(252,75,56);stop-opacity:1"/><stop offset="0.5" style="stop-color:rgb(126,105,133);stop-opacity:1"/><stop offset="0.95" style="stop-color:rgb(20,118,252);stop-opacity:1"/><stop offset="1" style="stop-color:rgb(20,118,252);stop-opacity:1"/></linearGradient>
    </defs>
</svg>
