<svg version="1.1" id="Layer_1" xmlns:x="ns_extend;" xmlns:i="ns_ai;" xmlns:graph="ns_graphs;" xmlns="http://www.w3.org/2000/svg" xmlns:xlink="http://www.w3.org/1999/xlink" x="0px" y="0px" viewBox="0 0 504.9 74.4" style="enable-background:new 0 0 504.9 74.4;" xml:space="preserve">
 <style type="text/css">
  .st0{fill:#1476FC;}
	.st1{fill:url(#Path_241_1_);}
	.st2{fill:url(#Path_242_1_);}
	.st3{fill:url(#Path_243_1_);}
 </style>
 <metadata>
  <sfw xmlns="ns_sfw;">
   <slices>
   </slices>
   <sliceSourceBounds bottomLeftOrigin="true" height="74.4" width="504.9" x="398.3" y="-293.1">
   </sliceSourceBounds>
  </sfw>
 </metadata>
 <g>
  <g id="Group_439_00000026139385543653849690000007401976893967347877_" transform="translate(708 503)">
   <path id="Path_240_00000040543164122259929240000005010560707039377031_" class="st0" d="M-630.3-502.7c10.1,0,18.2,2.7,23.9,8.1
			c5.8,5.4,8.8,13.3,8.8,23.4v40.7c0,0.9-0.8,1.7-1.7,1.7h-13.4c-0.9,0-1.7-0.8-1.7-1.7v-42.2c0-4.7-1.4-8.3-4.2-10.8
			c-2.9-2.6-6.8-3.9-11.7-3.9h-14.4c-4.9,0-8.8,1.3-11.7,3.9c-2.8,2.6-4.2,6.1-4.2,10.8v42.2c0,0.9-0.8,1.7-1.7,1.7l0,0h-13.4
			c-0.9,0-1.7-0.8-1.7-1.7l0,0v-40.7c0-10.1,2.9-18,8.8-23.4c5.8-5.4,13.8-8.1,23.9-8.1H-630.3 M-474.2-502.7h-14.4
			c-10.1,0-18.2,2.7-23.9,8.1c-0.1,0.1-0.3,0.3-0.4,0.4c-0.1-0.1-0.3-0.3-0.4-0.4c-5.8-5.4-13.8-8.1-23.9-8.1h-14.4
			c-10.1,0-18.2,2.7-23.9,8.1c-5.8,5.4-8.8,13.3-8.8,23.4v40.7c0,0.9,0.8,1.7,1.7,1.7h13.4c0.9,0,1.7-0.8,1.7-1.7l0,0v-42.2
			c0-4.7,1.4-8.3,4.2-10.8c2.9-2.6,6.8-3.9,11.7-3.9h14.4c4.9,0,8.8,1.3,11.7,3.9c2.8,2.5,4.2,6.2,4.2,10.8v42.2
			c0,0.9,0.8,1.7,1.7,1.7l0,0h13.4c0.9,0,1.7-0.8,1.7-1.7c0,0,0,0,0,0l0-42.2c0-4.7,1.4-8.3,4.2-10.8c2.9-2.6,6.8-3.9,11.7-3.9h14.4
			c4.9,0,8.8,1.3,11.7,3.9c2.8,2.5,4.2,6.2,4.2,10.8v42.2c0,0.9,0.8,1.7,1.7,1.7l0,0h13.4c0.9,0,1.7-0.8,1.7-1.7l0,0v-40.7
			c0-10.1-2.9-18-8.8-23.4C-456-500-464.1-502.7-474.2-502.7 M-240.3-468.5c4.7,3.1,7.1,8.8,7.1,17c0,8-2,13.9-5.9,17.5
			c-3.9,3.5-9.9,5.3-17.9,5.3h-56c-0.9,0-1.7-0.8-1.7-1.7c0,0,0,0,0,0V-501c0-0.9,0.8-1.7,1.7-1.7l0,0h51.5c7.4,0,13.1,1.2,17,3.6
			c5.1,3.3,7.7,8.7,7.7,16.1c0.1,3.1-0.2,6.2-0.9,9.2C-238.1-471.9-239-470.1-240.3-468.5 M-261.2-475.1c6.9,0,7.9-2.8,7.9-5.9
			c0-3.3-1-6.3-8-6.3H-297c-0.5,0-0.8,0.4-0.8,0.8c0,0,0,0,0,0v10.6c0,0.5,0.4,0.8,0.8,0.8l0,0L-261.2-475.1 M-297.9-445.1
			c0,0.5,0.4,0.8,0.8,0.8l0,0h38.6c6.2,0,8.7-2.3,8.7-8.1c0-3.6-1.1-7.3-9.2-7.3H-297c-0.5,0-0.8,0.4-0.8,0.8c0,0,0,0,0,0
			L-297.9-445.1z M-204.8-502.6h-13.7c-0.9,0-1.7,0.8-1.7,1.7l0,0v70.5c0,0.9,0.8,1.7,1.7,1.7l0,0h13.6c0.9,0,1.7-0.8,1.7-1.7l0,0
			V-501C-203.1-501.9-203.9-502.6-204.8-502.6L-204.8-502.6z M-692.6-502.7h-13.7c-0.9,0-1.7,0.8-1.7,1.7c0,0,0,0,0,0v70.7
			c0,0.9,0.8,1.7,1.7,1.7l0,0h13.7c0.9,0,1.7-0.8,1.7-1.7l0,0V-501C-690.9-502-691.7-502.7-692.6-502.7
			C-692.6-502.7-692.6-502.7-692.6-502.7L-692.6-502.7z">
   </path>
  </g>
  <g>
   <linearGradient id="Path_241_1_" gradientUnits="userSpaceOnUse" x1="-399.2229" y1="862.3243" x2="-398.2436" y2="862.3243" gradientTransform="matrix(85.087 0 0 -31.1166 34250.0273 26848.2852)">
    <stop offset="0" style="stop-color:#A5D270">
    </stop>
    <stop offset="0.5" style="stop-color:#5DA4B6">
    </stop>
    <stop offset="0.7739" style="stop-color:#2F87E2">
    </stop>
    <stop offset="1" style="stop-color:#1476FC">
    </stop>
   </linearGradient>
   <path id="Path_241_00000138569960490702086780000016303982753577425315_" class="st1" d="M309.1,13.6L309.1,13.6l42.2,0
			c4.9,0.1,8.7,1.2,11.3,3.2c0.1,0,0.1,0,0.2,0c0,0,0-0.1,0-0.1c-3.1-5.8-7.8-10.7-13.5-14c-3-1.7-6.5-2.6-9.9-2.6h-31.3v0
			c-9.6,0.2-17.1,3.2-22.3,8.7c-5.1,5.4-7.8,12.9-8.1,22.2c0,0.1,0.1,0.1,0.1,0.1c0,0,0.1,0,0.1-0.1
			C284.6,20.2,296.4,13.6,309.1,13.6z">
   </path>
   <linearGradient id="Path_242_1_" gradientUnits="userSpaceOnUse" x1="-401.8748" y1="862.4943" x2="-401.6964" y2="861.5483" gradientTransform="matrix(33.652 0 0 -74.3677 13885.2168 64143.5781)">
    <stop offset="1.700000e-02" style="stop-color:#FFD522">
    </stop>
    <stop offset="0.1518" style="stop-color:#E0C437">
    </stop>
    <stop offset="0.5612" style="stop-color:#7B8C7E">
    </stop>
    <stop offset="0.9015" style="stop-color:#2379E9">
    </stop>
    <stop offset="1" style="stop-color:#1476FC">
    </stop>
   </linearGradient>
   <path id="Path_242_00000014630845450602277260000002636582082785919384_" class="st2" d="M374,8.9c-8.6-9.4-22.8-9-25.4-8.8
			c-0.1,0-0.1,0.1-0.1,0.1c0,0,0,0.1,0.1,0.1c10.7,5.3,18.2,15.7,19.8,27.5c0.7,4.9,0.3,14.7,0.3,14.7c-0.2,13.3-7.5,25.4-19.2,31.6
			c-0.1,0-0.1,0.1-0.1,0.2c0,0,0.1,0.1,0.1,0.1c2.5,0.1,16.1,0.4,24.6-8.8c5.3-5.8,8.1-13.8,8.1-23.9v-8.8
			C382.1,22.7,379.3,14.7,374,8.9z">
   </path>
   <linearGradient id="Path_243_1_" gradientUnits="userSpaceOnUse" x1="-399.2381" y1="862.2358" x2="-398.4063" y2="861.709" gradientTransform="matrix(85.715 0 0 -56.1461 34499.3086 48449.2227)">
    <stop offset="0" style="stop-color:#FC4B38">
    </stop>
    <stop offset="6.499109e-02" style="stop-color:#FC4B38">
    </stop>
    <stop offset="0.5" style="stop-color:#7E6985">
    </stop>
    <stop offset="0.9526" style="stop-color:#1476FC">
    </stop>
   </linearGradient>
   <path id="Path_243_00000016767590359823891360000011236747957546222227_" class="st3" d="M349.9,71.8c5.8-3.3,10.5-8.4,13.4-14.4
			c0-0.1,0-0.1-0.1-0.2c0,0-0.1,0-0.1,0c-2.7,2.3-6.5,3.4-11.7,3.5h-42.9c-5.9-0.1-10-1.6-12.7-4.5c-3-3.2-4.5-8.1-4.5-14.7v-8.8
			c0-9.1,3-13.2,4.2-14.4c0-0.1,0-0.1,0-0.2c0,0-0.1,0-0.1,0c-5.8,2.5-10.8,6.6-14.4,11.7c-2.2,3.2-3.4,7.1-3.3,11
			c0,6.1,1.2,17,8.3,24.6c5.7,6.1,14.3,8.8,22.3,8.7l32.2,0C343.7,74.3,347,73.5,349.9,71.8z">
   </path>
  </g>
 </g>
</svg>